<svg width="10" height="14" viewBox="0 0 10 14" fill="none" xmlns="http://www.w3.org/2000/svg">
<path d="M9.03846 2.38465H6.92308V2.00004C6.92308 1.36381 6.40546 0.846191 5.76923 0.846191H4.23077C3.59454 0.846191 3.07692 1.36381 3.07692 2.00004V2.38465H0.961538C0.431346 2.38465 0 2.816 0 3.34619V4.69235C0 4.90475 0.172212 5.07696 0.384615 5.07696H0.594808L0.927091 12.0549C0.956442 12.6712 1.46269 13.1539 2.07962 13.1539H7.92038C8.53733 13.1539 9.04358 12.6712 9.07291 12.0549L9.40519 5.07696H9.61539C9.82779 5.07696 10 4.90475 10 4.69235V3.34619C10 2.816 9.56865 2.38465 9.03846 2.38465ZM3.84615 2.00004C3.84615 1.78797 4.0187 1.61542 4.23077 1.61542H5.76923C5.9813 1.61542 6.15385 1.78797 6.15385 2.00004V2.38465H3.84615V2.00004ZM0.769231 3.34619C0.769231 3.24016 0.855505 3.15388 0.961538 3.15388H9.03846C9.1445 3.15388 9.23077 3.24016 9.23077 3.34619V4.30773C9.11224 4.30773 1.26041 4.30773 0.769231 4.30773V3.34619ZM8.30454 12.0183C8.29476 12.2237 8.12601 12.3847 7.92038 12.3847H2.07962C1.87397 12.3847 1.70522 12.2237 1.69546 12.0183L1.3649 5.07696H8.6351L8.30454 12.0183Z" fill="#AB19FF"/>
<path d="M4.99985 11.6154C5.21225 11.6154 5.38447 11.4432 5.38447 11.2308V6.23081C5.38447 6.0184 5.21225 5.84619 4.99985 5.84619C4.78745 5.84619 4.61523 6.0184 4.61523 6.23081V11.2308C4.61523 11.4432 4.78742 11.6154 4.99985 11.6154Z" fill="#AB19FF"/>
<path d="M6.92368 11.6154C7.13608 11.6154 7.30829 11.4432 7.30829 11.2308V6.23081C7.30829 6.0184 7.13608 5.84619 6.92368 5.84619C6.71127 5.84619 6.53906 6.0184 6.53906 6.23081V11.2308C6.53906 11.4432 6.71125 11.6154 6.92368 11.6154Z" fill="#AB19FF"/>
<path d="M3.07602 11.6154C3.28843 11.6154 3.46064 11.4432 3.46064 11.2308V6.23081C3.46064 6.0184 3.28843 5.84619 3.07602 5.84619C2.86362 5.84619 2.69141 6.0184 2.69141 6.23081V11.2308C2.69141 11.4432 2.86359 11.6154 3.07602 11.6154Z" fill="#AB19FF"/>
</svg>
