<svg width="18" height="13" viewBox="0 0 18 13" fill="none" xmlns="http://www.w3.org/2000/svg">
  <path d="M9 7.61099C9.69036 7.61099 10.25 7.05135 10.25 6.36099C10.25 5.67064 9.69036 5.11099 9 5.11099C8.30964 5.11099 7.75 5.67064 7.75 6.36099C7.75 7.05135 8.30964 7.61099 9 7.61099Z" fill="white" fill-opacity="0.8"/>
  <path d="M17.225 5.94432C16.6916 5.01932 13.7583 0.377656 8.77498 0.527656C4.16664 0.644323 1.49998 4.69432 0.774976 5.94432C0.701835 6.07101 0.66333 6.21471 0.66333 6.36099C0.66333 6.50727 0.701835 6.65097 0.774976 6.77766C1.29998 7.68599 4.10831 12.1943 9.01664 12.1943H9.22498C13.8333 12.0777 16.5083 8.02766 17.225 6.77766C17.2981 6.65097 17.3366 6.50727 17.3366 6.36099C17.3366 6.21471 17.2981 6.07101 17.225 5.94432ZM8.99998 9.27766C8.42311 9.27766 7.85921 9.1066 7.37956 8.78611C6.89992 8.46562 6.52608 8.0101 6.30533 7.47715C6.08457 6.9442 6.02681 6.35775 6.13935 5.79198C6.25189 5.2262 6.52968 4.7065 6.93758 4.2986C7.34548 3.89069 7.86518 3.61291 8.43096 3.50037C8.99674 3.38783 9.58319 3.44559 10.1161 3.66634C10.6491 3.8871 11.1046 4.26093 11.4251 4.74058C11.7456 5.22022 11.9166 5.78413 11.9166 6.36099C11.9166 7.13454 11.6094 7.8764 11.0624 8.42338C10.5154 8.97036 9.77352 9.27766 8.99998 9.27766Z" fill="white" fill-opacity="0.8"/>
  <line x1="1" y1="12" x2="17" y2="1" stroke="white" stroke-width="1.5" stroke-opacity="0.8" />
</svg>
