<svg width="22" height="20" viewBox="0 0 22 20" fill="#0000FF" xmlns="http://www.w3.org/2000/svg">
  <path d="M15.8889 9.19844e-06C14.9403 -0.00165709 14.0044 0.223083 13.1557 0.656353C12.307 1.08962 11.5689 1.71947 11 2.49579C10.2296 1.44739 9.15626 0.673334 7.93199 0.283137C6.70771 -0.10706 5.39446 -0.0936347 4.17806 0.321514C2.96166 0.736663 1.90371 1.53251 1.15391 2.59644C0.404111 3.66038 0.000433372 4.93852 0 6.25001C0 13.7357 10.169 19.6458 10.6018 19.8937C10.7235 19.9634 10.8606 20 11 20C11.1394 20 11.2765 19.9634 11.3982 19.8937C13.2684 18.7735 15.0238 17.4636 16.6377 15.984C20.1958 12.7088 22 9.43385 22 6.25001C21.9982 4.59298 21.3537 3.00436 20.2081 1.83267C19.0624 0.66097 17.5091 0.00188728 15.8889 9.19844e-06Z" fill="#AB19FF"/>
</svg>
