<svg width="14" height="18" viewBox="0 0 14 18" fill="none" xmlns="http://www.w3.org/2000/svg">
<path d="M12 6.02766H11.1667V4.36099C11.1667 2.06099 9.30004 0.194328 7.00004 0.194328C4.70004 0.194328 2.83337 2.06099 2.83337 4.36099V6.02766H2.00004C1.07921 6.02766 0.333374 6.77349 0.333374 7.69433V16.0277C0.333374 16.9485 1.07921 17.6943 2.00004 17.6943H12C12.9209 17.6943 13.6667 16.9485 13.6667 16.0277V7.69433C13.6667 6.77349 12.9209 6.02766 12 6.02766ZM7.00004 13.5277C6.07921 13.5277 5.33337 12.7818 5.33337 11.861C5.33337 10.9402 6.07921 10.1943 7.00004 10.1943C7.92087 10.1943 8.66671 10.9402 8.66671 11.861C8.66671 12.7818 7.92087 13.5277 7.00004 13.5277ZM9.58337 6.02766H4.41671V4.36099C4.41671 2.93599 5.57504 1.77766 7.00004 1.77766C8.42504 1.77766 9.58337 2.93599 9.58337 4.36099V6.02766Z" fill="white" fill-opacity="0.8"/>
</svg>
