<svg width="20" height="21" viewBox="0 0 20 21" fill="none" xmlns="http://www.w3.org/2000/svg">
<path d="M9.99995 9.61724L17.9875 4.48599C17.6663 4.24513 17.2764 4.11368 16.875 4.11099H3.12495C2.72354 4.11368 2.33358 4.24513 2.01245 4.48599L9.99995 9.61724Z" fill="white" fill-opacity="0.8"/>
<path d="M10.3375 10.886L10.2313 10.936H10.1813C10.1237 10.9617 10.0626 10.9786 10 10.986C9.94812 10.9925 9.89563 10.9925 9.84375 10.986H9.79375L9.6875 10.936L1.3125 5.52349C1.27249 5.67445 1.25149 5.82982 1.25 5.98599V14.736C1.25 15.2333 1.44754 15.7102 1.79917 16.0618C2.15081 16.4134 2.62772 16.611 3.125 16.611H16.875C17.3723 16.611 17.8492 16.4134 18.2008 16.0618C18.5525 15.7102 18.75 15.2333 18.75 14.736V5.98599C18.7485 5.82982 18.7275 5.67445 18.6875 5.52349L10.3375 10.886Z" fill="white" fill-opacity="0.8"/>
</svg>
