<svg width="34" height="24" viewBox="0 0 34 24" fill="none" xmlns="http://www.w3.org/2000/svg">
<path d="M2.00004 3.66668H32C32.4421 3.66668 32.866 3.49108 33.1786 3.17852C33.4911 2.86596 33.6667 2.44204 33.6667 2.00001C33.6667 1.55798 33.4911 1.13406 33.1786 0.821499C32.866 0.508939 32.4421 0.333344 32 0.333344H2.00004C1.55801 0.333344 1.13409 0.508939 0.821529 0.821499C0.508969 1.13406 0.333374 1.55798 0.333374 2.00001C0.333374 2.44204 0.508969 2.86596 0.821529 3.17852C1.13409 3.49108 1.55801 3.66668 2.00004 3.66668ZM32 10.3333H2.00004C1.55801 10.3333 1.13409 10.5089 0.821529 10.8215C0.508969 11.1341 0.333374 11.558 0.333374 12C0.333374 12.442 0.508969 12.866 0.821529 13.1785C1.13409 13.4911 1.55801 13.6667 2.00004 13.6667H32C32.4421 13.6667 32.866 13.4911 33.1786 13.1785C33.4911 12.866 33.6667 12.442 33.6667 12C33.6667 11.558 33.4911 11.1341 33.1786 10.8215C32.866 10.5089 32.4421 10.3333 32 10.3333ZM32 20.3333H2.00004C1.55801 20.3333 1.13409 20.5089 0.821529 20.8215C0.508969 21.1341 0.333374 21.558 0.333374 22C0.333374 22.442 0.508969 22.866 0.821529 23.1785C1.13409 23.4911 1.55801 23.6667 2.00004 23.6667H32C32.4421 23.6667 32.866 23.4911 33.1786 23.1785C33.4911 22.866 33.6667 22.442 33.6667 22C33.6667 21.558 33.4911 21.1341 33.1786 20.8215C32.866 20.5089 32.4421 20.3333 32 20.3333Z" fill="white"/>
</svg>
