<svg width="16" height="17" viewBox="0 0 16 17" fill="none" xmlns="http://www.w3.org/2000/svg">
<path d="M13.2332 11.0845C12.7914 10.6903 12.2095 10.4854 11.6152 10.5147C11.0209 10.5441 10.4625 10.8052 10.0625 11.241L9.57447 11.777C9.36718 12.0018 9.21006 12.2673 9.11334 12.5561L9.06958 12.6859L8.94168 12.636C6.77022 11.7846 4.99441 10.1681 3.95676 8.0982L3.88944 7.9617L4.03754 7.91842C4.4259 7.8003 4.77478 7.5806 5.04731 7.28253L5.53537 6.74985C5.93437 6.31276 6.1415 5.73681 6.1112 5.14867C6.0809 4.56054 5.81566 4.00839 5.37381 3.61368L4.55252 2.87792C4.33413 2.68189 4.07879 2.53041 3.80111 2.43216C3.52344 2.33391 3.22889 2.29082 2.93435 2.30536C2.63981 2.31989 2.35106 2.39177 2.08465 2.51687C1.81824 2.64197 1.57941 2.81784 1.38183 3.03439L0.893773 3.56707C0.828827 3.63697 0.7692 3.71153 0.715379 3.79013L0.691818 3.81677C0.230688 4.20629 -0.159759 5.14847 0.0657578 6.31704C0.584314 8.95917 1.95444 11.364 3.97086 13.1712C5.98729 14.9784 8.54145 16.0907 11.2507 16.3415C11.9198 16.4157 12.5955 16.277 13.1794 15.9453C13.3809 15.822 13.5624 15.6693 13.7179 15.4925L14.206 14.9565C14.6045 14.5199 14.8123 13.9451 14.7839 13.3575C14.7556 12.7699 14.4933 12.2173 14.0545 11.8203L13.2332 11.0845ZM8.30215 0.360992C8.17059 0.371437 8.04782 0.430507 7.9583 0.526442C7.86878 0.622378 7.81908 0.748141 7.81908 0.878693C7.81908 1.00924 7.86878 1.13501 7.9583 1.23094C8.04782 1.32688 8.17059 1.38595 8.30215 1.39639C10.0656 1.39816 11.7563 2.09183 13.0032 3.32517C14.2501 4.55852 14.9514 6.2308 14.9532 7.97502C14.9638 8.10515 15.0235 8.22658 15.1205 8.31512C15.2175 8.40367 15.3446 8.45283 15.4766 8.45283C15.6086 8.45283 15.7357 8.40367 15.8327 8.31512C15.9297 8.22658 15.9894 8.10515 16 7.97502C15.9973 5.95646 15.1854 4.02134 13.7424 2.59401C12.2994 1.16667 10.3429 0.363635 8.30215 0.360992Z" fill="white" fill-opacity="0.8"/>
<path d="M12.0885 7.93751C12.0977 8.05285 12.1497 8.16046 12.2342 8.23894C12.3186 8.31742 12.4293 8.36099 12.5443 8.36099C12.6592 8.36099 12.7699 8.31742 12.8544 8.23894C12.9388 8.16046 12.9908 8.05285 13 7.93751C12.9984 6.72422 12.519 5.56107 11.6669 4.70315C10.8147 3.84522 9.6594 3.36255 8.45428 3.36099C8.39462 3.36099 8.33555 3.37282 8.28043 3.39581C8.22532 3.41879 8.17524 3.45248 8.13305 3.49495C8.09087 3.53742 8.05741 3.58784 8.03458 3.64333C8.01175 3.69882 8 3.75829 8 3.81835C8 3.87841 8.01175 3.93788 8.03458 3.99337C8.05741 4.04886 8.09087 4.09928 8.13305 4.14175C8.17524 4.18422 8.22532 4.21791 8.28043 4.24089C8.33555 4.26388 8.39462 4.27571 8.45428 4.27571C9.41817 4.27727 10.3421 4.66366 11.0234 5.35013C11.7047 6.0366 12.0877 6.96709 12.0885 7.93751Z" fill="white" fill-opacity="0.8"/>
</svg>
