<svg width="100" height="100" viewBox="0 0 100 100" fill="none" xmlns="http://www.w3.org/2000/svg">
<rect width="100" height="100" rx="10" fill="white"/>
<path d="M49.5 12C39.1875 12 30.75 22.5 30.75 35.4375C30.75 48.375 39.1875 58.875 49.5 58.875C59.8125 58.875 68.25 48.375 68.25 35.4375C68.25 22.5 59.8125 12 49.5 12ZM29.9062 58.875C19.9688 59.3438 12 67.5 12 77.625V87H87V77.625C87 67.5 79.125 59.3438 69.0938 58.875C64.0312 64.5938 57.0938 68.25 49.5 68.25C41.9062 68.25 34.9688 64.5938 29.9062 58.875Z" fill="#886AE2" fill-opacity="0.4"/>
<rect x="30" y="30" width="40" height="40" rx="20" fill="#AB19FF"/>
<path d="M43.1274 57.726C42.7074 57.726 42.3478 57.5716 42.0487 57.2629C41.7496 56.9542 41.6001 56.5831 41.6001 56.1496V46.6911C41.6001 46.2576 41.7496 45.8865 42.0487 45.5778C42.3478 45.2691 42.7074 45.1147 43.1274 45.1147H45.5328L46.9456 43.5383H51.5274V45.1147H47.6137L46.2201 46.6911H43.1274V56.1496H55.3456V49.0557H56.8728V56.1496C56.8728 56.5831 56.7233 56.9542 56.4242 57.2629C56.1251 57.5716 55.7656 57.726 55.3456 57.726H43.1274ZM55.3456 46.6911V45.1147H53.8183V43.5383H55.3456V41.9619H56.8728V43.5383H58.4001V45.1147H56.8728V46.6911H55.3456ZM49.2365 54.9673C50.191 54.9673 51.0024 54.6224 51.6706 53.9327C52.3387 53.2431 52.6728 52.4056 52.6728 51.4204C52.6728 50.4351 52.3387 49.5976 51.6706 48.908C51.0024 48.2183 50.191 47.8734 49.2365 47.8734C48.2819 47.8734 47.4706 48.2183 46.8024 48.908C46.1342 49.5976 45.8001 50.4351 45.8001 51.4204C45.8001 52.4056 46.1342 53.2431 46.8024 53.9327C47.4706 54.6224 48.2819 54.9673 49.2365 54.9673ZM49.2365 53.3909C48.7019 53.3909 48.2501 53.2004 47.881 52.8194C47.5119 52.4384 47.3274 51.9721 47.3274 51.4204C47.3274 50.8686 47.5119 50.4023 47.881 50.0213C48.2501 49.6403 48.7019 49.4498 49.2365 49.4498C49.771 49.4498 50.2228 49.6403 50.5919 50.0213C50.961 50.4023 51.1456 50.8686 51.1456 51.4204C51.1456 51.9721 50.961 52.4384 50.5919 52.8194C50.2228 53.2004 49.771 53.3909 49.2365 53.3909Z" fill="white"/>
</svg>
